G04 #@! TF.FileFunction,Legend,Top*
%FSLAX46Y46*%
G04 Gerber Fmt 4.6, Leading zero omitted, Abs format (unit mm)*
G04 Created by KiCad (PCBNEW 4.0.7) date 06/15/18 14:46:45*
%MOMM*%
%LPD*%
G01*
G04 APERTURE LIST*
%ADD10C,0.100000*%
%ADD11C,0.152400*%
%ADD12C,0.127000*%
%ADD13C,0.150000*%
G04 APERTURE END LIST*
D10*
D11*
X127447524Y-68362286D02*
X127834572Y-68362286D01*
X127592667Y-68023619D02*
X127592667Y-68894476D01*
X127641048Y-68991238D01*
X127737810Y-69039619D01*
X127834572Y-69039619D01*
X128318381Y-69039619D02*
X128221619Y-68991238D01*
X128173238Y-68942857D01*
X128124857Y-68846095D01*
X128124857Y-68555810D01*
X128173238Y-68459048D01*
X128221619Y-68410667D01*
X128318381Y-68362286D01*
X128463523Y-68362286D01*
X128560285Y-68410667D01*
X128608666Y-68459048D01*
X128657047Y-68555810D01*
X128657047Y-68846095D01*
X128608666Y-68942857D01*
X128560285Y-68991238D01*
X128463523Y-69039619D01*
X128318381Y-69039619D01*
X129866571Y-69039619D02*
X129866571Y-68023619D01*
X130108476Y-68023619D01*
X130253618Y-68072000D01*
X130350380Y-68168762D01*
X130398761Y-68265524D01*
X130447142Y-68459048D01*
X130447142Y-68604190D01*
X130398761Y-68797714D01*
X130350380Y-68894476D01*
X130253618Y-68991238D01*
X130108476Y-69039619D01*
X129866571Y-69039619D01*
X130882571Y-69039619D02*
X130882571Y-68023619D01*
X131366381Y-69039619D02*
X131366381Y-68023619D01*
X131753428Y-68023619D01*
X131850190Y-68072000D01*
X131898571Y-68120381D01*
X131946952Y-68217143D01*
X131946952Y-68362286D01*
X131898571Y-68459048D01*
X131850190Y-68507429D01*
X131753428Y-68555810D01*
X131366381Y-68555810D01*
X132527524Y-68459048D02*
X132430762Y-68410667D01*
X132382381Y-68362286D01*
X132334000Y-68265524D01*
X132334000Y-68217143D01*
X132382381Y-68120381D01*
X132430762Y-68072000D01*
X132527524Y-68023619D01*
X132721047Y-68023619D01*
X132817809Y-68072000D01*
X132866190Y-68120381D01*
X132914571Y-68217143D01*
X132914571Y-68265524D01*
X132866190Y-68362286D01*
X132817809Y-68410667D01*
X132721047Y-68459048D01*
X132527524Y-68459048D01*
X132430762Y-68507429D01*
X132382381Y-68555810D01*
X132334000Y-68652571D01*
X132334000Y-68846095D01*
X132382381Y-68942857D01*
X132430762Y-68991238D01*
X132527524Y-69039619D01*
X132721047Y-69039619D01*
X132817809Y-68991238D01*
X132866190Y-68942857D01*
X132914571Y-68846095D01*
X132914571Y-68652571D01*
X132866190Y-68555810D01*
X132817809Y-68507429D01*
X132721047Y-68459048D01*
X133253238Y-68023619D02*
X133495143Y-69039619D01*
X133688666Y-68313905D01*
X133882190Y-69039619D01*
X134124095Y-68023619D01*
D12*
X130048000Y-63246000D02*
G75*
G03X130048000Y-63246000I-254000J0D01*
G01*
D13*
X128735000Y-62195000D02*
X128735000Y-62245000D01*
X132885000Y-62195000D02*
X132885000Y-62340000D01*
X132885000Y-67345000D02*
X132885000Y-67200000D01*
X128735000Y-67345000D02*
X128735000Y-67200000D01*
X128735000Y-62195000D02*
X132885000Y-62195000D01*
X128735000Y-67345000D02*
X132885000Y-67345000D01*
X128735000Y-62245000D02*
X127335000Y-62245000D01*
D11*
X128753810Y-61371238D02*
X128898953Y-61419619D01*
X129140857Y-61419619D01*
X129237619Y-61371238D01*
X129286000Y-61322857D01*
X129334381Y-61226095D01*
X129334381Y-61129333D01*
X129286000Y-61032571D01*
X129237619Y-60984190D01*
X129140857Y-60935810D01*
X128947334Y-60887429D01*
X128850572Y-60839048D01*
X128802191Y-60790667D01*
X128753810Y-60693905D01*
X128753810Y-60597143D01*
X128802191Y-60500381D01*
X128850572Y-60452000D01*
X128947334Y-60403619D01*
X129189238Y-60403619D01*
X129334381Y-60452000D01*
X129963334Y-60403619D02*
X130156857Y-60403619D01*
X130253619Y-60452000D01*
X130350381Y-60548762D01*
X130398762Y-60742286D01*
X130398762Y-61080952D01*
X130350381Y-61274476D01*
X130253619Y-61371238D01*
X130156857Y-61419619D01*
X129963334Y-61419619D01*
X129866572Y-61371238D01*
X129769810Y-61274476D01*
X129721429Y-61080952D01*
X129721429Y-60742286D01*
X129769810Y-60548762D01*
X129866572Y-60452000D01*
X129963334Y-60403619D01*
X130834191Y-61419619D02*
X130834191Y-60403619D01*
X131898572Y-61322857D02*
X131850191Y-61371238D01*
X131705048Y-61419619D01*
X131608286Y-61419619D01*
X131463144Y-61371238D01*
X131366382Y-61274476D01*
X131318001Y-61177714D01*
X131269620Y-60984190D01*
X131269620Y-60839048D01*
X131318001Y-60645524D01*
X131366382Y-60548762D01*
X131463144Y-60452000D01*
X131608286Y-60403619D01*
X131705048Y-60403619D01*
X131850191Y-60452000D01*
X131898572Y-60500381D01*
X132479144Y-60839048D02*
X132382382Y-60790667D01*
X132334001Y-60742286D01*
X132285620Y-60645524D01*
X132285620Y-60597143D01*
X132334001Y-60500381D01*
X132382382Y-60452000D01*
X132479144Y-60403619D01*
X132672667Y-60403619D01*
X132769429Y-60452000D01*
X132817810Y-60500381D01*
X132866191Y-60597143D01*
X132866191Y-60645524D01*
X132817810Y-60742286D01*
X132769429Y-60790667D01*
X132672667Y-60839048D01*
X132479144Y-60839048D01*
X132382382Y-60887429D01*
X132334001Y-60935810D01*
X132285620Y-61032571D01*
X132285620Y-61226095D01*
X132334001Y-61322857D01*
X132382382Y-61371238D01*
X132479144Y-61419619D01*
X132672667Y-61419619D01*
X132769429Y-61371238D01*
X132817810Y-61322857D01*
X132866191Y-61226095D01*
X132866191Y-61032571D01*
X132817810Y-60935810D01*
X132769429Y-60887429D01*
X132672667Y-60839048D01*
M02*
